<?xml version="1.0" standalone="no"?>
<!DOCTYPE svg PUBLIC "-//W3C//DTD SVG 20010904//EN"
 "http://www.w3.org/TR/2001/REC-SVG-20010904/DTD/svg10.dtd">
<svg version="1.0" xmlns="http://www.w3.org/2000/svg"
 width="360.000000pt" height="360.000000pt" viewBox="0 0 360.000000 360.000000"
 preserveAspectRatio="xMidYMid meet">
<metadata>
Created by potrace 1.14, written by Peter Selinger 2001-2017
</metadata>
<g transform="translate(0.000000,360.000000) scale(0.100000,-0.100000)"
fill="#000000" stroke="none">
<path d="M843 3440 c-59 -12 -112 -42 -155 -87 -41 -42 -77 -114 -78 -153 -1
-41 -14 -51 -86 -61 -89 -12 -124 -23 -208 -67 -135 -71 -250 -216 -293 -373
-17 -59 -18 -139 -18 -1049 0 -910 1 -990 18 -1049 57 -207 221 -371 428 -428
60 -17 153 -18 1349 -18 1196 0 1289 1 1349 18 207 57 371 221 428 428 17 59
18 139 18 1049 0 910 -1 990 -18 1049 -56 205 -217 367 -423 428 -53 16 -133
18 -854 21 -606 2 -796 6 -802 15 -4 7 -8 23 -8 37 0 40 -44 122 -86 162 -76
72 -114 82 -329 85 -104 1 -209 -2 -232 -7z m2292 -617 c51 -27 111 -87 138
-138 l22 -40 0 -995 0 -995 -22 -40 c-27 -51 -87 -111 -138 -138 l-40 -22
-1295 0 -1295 0 -40 22 c-51 27 -111 87 -138 138 l-22 40 0 995 0 995 22 40
c38 71 112 134 183 156 14 4 601 7 1305 6 l1280 -2 40 -22z"/>
<path d="M1700 2540 c-315 -39 -577 -228 -710 -513 -112 -238 -112 -516 0
-754 150 -320 457 -516 810 -516 353 0 660 196 810 516 184 392 53 873 -303
1116 -167 114 -413 175 -607 151z m250 -305 c163 -43 313 -163 384 -305 50
-103 66 -169 66 -280 0 -171 -56 -307 -175 -425 -118 -119 -254 -175 -425
-175 -171 0 -307 56 -425 175 -119 118 -175 254 -175 425 0 111 16 177 66 280
70 140 220 261 379 305 68 18 237 18 305 0z"/>
</g>
</svg>
