<?xml version="1.0" encoding="UTF-8" ?>
<!DOCTYPE svg PUBLIC "-//W3C//DTD SVG 1.1//EN" "http://www.w3.org/Graphics/SVG/1.1/DTD/svg11.dtd">
<svg width="477pt" height="511pt" viewBox="0 0 477 511" version="1.1" xmlns="http://www.w3.org/2000/svg">
<g id="#000000ff">
<path fill="#000000" opacity="1.00" d=" M 12.99 0.00 L 370.09 0.00 C 376.88 0.93 383.39 6.74 383.02 13.96 C 382.98 30.64 383.01 47.32 383.00 64.00 C 409.35 64.01 435.69 63.98 462.03 64.01 C 468.89 63.76 475.38 68.69 477.00 75.35 L 477.00 497.80 C 476.01 504.59 470.38 510.15 463.57 511.00 L 106.92 511.00 C 100.11 510.08 93.59 504.23 93.98 497.00 C 94.02 480.34 93.99 463.67 94.00 447.00 C 67.67 446.99 41.33 447.02 15.00 446.99 C 8.13 447.26 1.63 442.33 0.00 435.66 L 0.00 13.20 C 0.97 6.54 6.38 1.14 12.99 0.00 M 30.00 30.00 C 29.99 155.33 30.01 280.66 29.99 405.98 C 29.69 409.65 29.34 413.31 29.54 417.00 C 51.03 417.00 72.51 417.00 94.00 417.00 C 94.00 306.35 94.00 195.69 94.00 85.04 C 94.08 81.11 93.53 76.97 95.18 73.26 C 97.38 67.78 103.08 63.98 108.98 64.02 C 190.65 63.97 272.32 64.01 353.99 64.00 C 354.12 60.32 354.01 56.65 353.50 53.01 C 353.40 45.34 353.51 37.67 353.47 30.00 C 245.64 30.00 137.82 30.00 30.00 30.00 M 124.00 94.00 C 123.99 219.32 124.01 344.65 123.99 469.97 C 123.69 473.63 123.34 477.31 123.54 481.00 C 231.37 481.00 339.19 481.00 447.01 481.00 C 446.83 477.00 447.12 473.01 447.47 469.03 C 447.47 344.02 447.47 219.01 447.47 94.00 C 339.65 94.00 231.82 94.00 124.00 94.00 Z" />
<path fill="#000000" opacity="1.00" d=" M 170.40 128.56 C 173.26 128.08 176.18 128.29 179.06 128.26 C 252.05 128.28 325.03 128.25 398.01 128.27 C 406.35 127.98 413.75 135.67 413.17 143.98 C 412.92 151.82 405.78 158.53 397.93 158.26 C 323.31 158.28 248.68 158.25 174.06 158.27 C 166.75 158.66 159.70 153.15 158.51 145.90 C 156.91 138.13 162.63 129.93 170.40 128.56 Z" />
<path fill="#000000" opacity="1.00" d=" M 169.21 193.12 C 172.37 192.24 175.70 192.58 178.94 192.53 C 251.97 192.54 325.00 192.52 398.02 192.54 C 405.92 192.29 413.07 199.15 413.16 207.04 C 413.26 237.04 413.17 267.04 413.20 297.04 C 413.09 301.12 413.70 305.38 412.16 309.28 C 410.07 315.03 404.14 319.01 398.05 318.92 C 323.36 318.95 248.67 318.92 173.98 318.94 C 165.79 319.42 158.16 312.29 158.28 304.04 C 158.24 272.02 158.28 240.00 158.26 207.97 C 158.02 201.28 162.74 194.87 169.21 193.12 M 188.25 222.56 C 188.28 244.68 188.26 266.80 188.26 288.93 C 253.24 288.94 318.22 288.94 383.19 288.93 C 383.20 266.80 383.20 244.67 383.19 222.54 C 318.21 222.54 253.23 222.50 188.25 222.56 Z" />
<path fill="#000000" opacity="1.00" d=" M 170.39 353.49 C 172.58 353.10 174.82 353.19 177.04 353.18 C 202.71 353.24 228.38 353.14 254.05 353.23 C 261.84 353.28 268.64 360.26 268.60 368.03 C 268.82 375.94 261.91 383.15 253.97 383.16 C 226.99 383.23 200.01 383.21 173.03 383.17 C 165.81 383.14 159.21 377.27 158.40 370.09 C 157.25 362.53 162.90 354.84 170.39 353.49 Z" />
<path fill="#000000" opacity="1.00" d=" M 316.26 353.31 C 343.52 353.06 370.80 353.26 398.07 353.21 C 406.45 352.94 413.84 360.73 413.16 369.08 C 412.82 376.84 405.74 383.44 397.97 383.19 C 371.29 383.20 344.62 383.21 317.94 383.18 C 310.60 383.31 303.83 377.39 303.00 370.10 C 301.76 362.09 308.19 354.00 316.26 353.31 Z" />
<path fill="#000000" opacity="1.00" d=" M 170.52 417.73 C 172.67 417.37 174.87 417.46 177.05 417.45 C 202.72 417.51 228.39 417.41 254.05 417.50 C 262.06 417.54 268.99 424.93 268.59 432.91 C 268.47 440.59 261.69 447.40 253.99 447.43 C 227.02 447.50 200.05 447.48 173.08 447.44 C 165.72 447.47 159.05 441.37 158.36 434.06 C 157.38 426.52 163.08 419.04 170.52 417.73 Z" />
<path fill="#000000" opacity="1.00" d=" M 315.46 417.68 C 342.98 417.19 370.54 417.59 398.07 417.48 C 406.34 417.21 413.65 424.79 413.18 433.04 C 412.99 440.92 405.84 447.74 397.93 447.46 C 371.29 447.47 344.65 447.48 318.01 447.45 C 310.54 447.61 303.64 441.51 302.96 434.05 C 301.97 426.40 307.87 418.80 315.46 417.68 Z" />
</g>
</svg>
