<?xml version="1.0" encoding="UTF-8" ?>
<!DOCTYPE svg PUBLIC "-//W3C//DTD SVG 1.1//EN" "http://www.w3.org/Graphics/SVG/1.1/DTD/svg11.dtd">
<svg width="474pt" height="512pt" viewBox="0 0 474 512" version="1.1" xmlns="http://www.w3.org/2000/svg">
<g id="#ffffffff">
</g>
<g id="#000000ff">
<path fill="#000000" opacity="1.00" d=" M 228.62 0.00 L 245.19 0.00 C 246.29 0.46 247.40 0.91 248.52 1.33 C 249.81 1.80 251.12 2.22 252.42 2.69 C 253.48 3.21 254.55 3.73 255.62 4.24 C 257.31 5.22 258.94 6.30 260.65 7.27 C 264.08 10.90 268.44 13.87 270.74 18.41 C 271.55 19.83 272.48 21.18 273.34 22.56 C 273.83 23.88 274.25 25.22 274.77 26.53 C 274.89 27.01 275.14 27.95 275.26 28.42 C 276.48 30.67 275.44 33.44 276.87 35.62 C 277.19 102.75 276.87 169.89 277.03 237.02 C 276.99 238.58 277.15 240.26 276.18 241.60 C 276.02 243.59 276.05 245.62 275.42 247.54 C 274.88 248.89 274.33 250.24 273.77 251.59 C 272.14 255.18 270.04 258.48 267.68 261.63 C 265.81 263.79 263.77 265.80 261.65 267.70 C 260.58 268.32 259.54 268.98 258.51 269.67 C 256.88 270.72 255.27 271.81 253.65 272.87 C 251.60 273.58 249.50 274.11 247.44 274.76 C 246.98 274.88 246.04 275.12 245.57 275.25 C 242.93 276.60 239.86 275.81 237.02 276.02 C 234.16 275.83 231.09 276.58 228.42 275.26 C 227.96 275.13 227.03 274.86 226.57 274.73 C 224.91 274.18 223.20 273.82 221.52 273.38 C 219.42 272.28 217.44 270.98 215.47 269.67 C 214.45 268.97 213.42 268.31 212.35 267.70 C 210.22 265.80 208.19 263.79 206.32 261.63 C 205.03 259.57 203.43 257.73 202.19 255.64 C 201.71 254.56 201.21 253.50 200.71 252.43 C 199.91 250.84 199.21 249.21 198.55 247.55 C 197.73 245.23 198.49 242.54 197.12 240.40 C 196.82 173.26 197.13 106.12 196.97 38.98 C 196.99 37.42 196.87 35.75 197.82 34.39 C 198.03 32.39 197.77 30.26 198.75 28.42 C 198.87 27.95 199.11 27.00 199.23 26.53 C 199.73 25.22 200.16 23.88 200.66 22.56 C 201.52 21.17 202.45 19.83 203.27 18.41 C 205.57 13.87 209.92 10.89 213.35 7.27 C 215.06 6.31 216.69 5.22 218.38 4.21 C 220.69 3.11 223.03 2.06 225.50 1.34 C 226.58 0.99 227.62 0.54 228.62 0.00 Z" />
<path fill="#000000" opacity="1.00" d=" M 109.42 79.75 C 112.40 78.32 115.83 79.22 119.02 79.00 C 122.18 79.19 125.56 78.40 128.57 79.68 C 129.87 79.98 131.20 80.22 132.46 80.69 C 134.07 81.47 135.75 82.08 137.44 82.67 C 138.84 83.52 140.19 84.45 141.57 85.32 C 142.86 86.42 144.18 87.47 145.58 88.42 C 146.98 90.64 148.90 92.46 150.71 94.35 C 151.32 95.41 151.96 96.46 152.63 97.49 C 153.31 98.50 154.01 99.49 154.72 100.48 C 155.14 101.88 155.68 103.23 156.23 104.58 C 156.63 105.54 157.03 106.50 157.41 107.46 C 158.20 109.69 157.99 112.08 158.14 114.39 C 159.32 115.90 159.39 118.11 158.11 119.60 C 157.84 122.26 158.52 125.13 157.24 127.59 C 157.03 129.23 156.92 130.89 156.41 132.47 C 155.66 133.76 154.95 135.08 154.26 136.41 C 154.03 136.91 153.56 137.93 153.33 138.43 C 152.46 139.84 151.54 141.21 150.73 142.64 C 147.70 145.62 145.09 149.16 141.38 151.34 C 139.80 152.78 138.27 154.31 136.36 155.32 C 131.32 159.95 126.64 164.97 121.75 169.76 C 119.62 171.95 117.13 173.87 115.67 176.61 C 114.57 177.88 113.43 179.12 112.33 180.39 C 111.49 181.85 110.41 183.15 109.31 184.42 C 108.45 185.81 107.54 187.18 106.72 188.61 C 106.36 189.05 105.64 189.95 105.28 190.39 C 104.45 191.81 103.54 193.18 102.73 194.61 C 101.62 196.57 100.38 198.44 99.23 200.38 C 98.99 200.89 98.53 201.92 98.30 202.43 C 98.05 202.93 97.54 203.93 97.28 204.42 C 97.03 204.92 96.54 205.93 96.29 206.43 C 96.04 206.92 95.53 207.92 95.28 208.42 C 94.76 209.47 94.22 210.51 93.69 211.57 C 92.57 213.84 91.70 216.23 90.74 218.59 C 90.23 219.87 89.78 221.18 89.28 222.47 C 88.98 223.49 88.68 224.51 88.36 225.53 C 88.00 226.54 87.62 227.55 87.23 228.55 C 87.11 229.02 86.87 229.97 86.75 230.44 C 86.21 232.13 85.80 233.86 85.26 235.56 C 85.13 236.03 84.86 236.95 84.73 237.42 C 84.00 238.98 83.97 240.73 83.76 242.41 C 82.92 243.95 83.00 245.73 82.78 247.41 C 81.70 249.22 82.06 251.40 81.82 253.40 C 80.29 256.13 81.27 259.42 80.89 262.39 C 79.81 263.69 80.01 265.39 79.97 266.95 C 80.01 271.95 80.01 276.96 79.97 281.96 C 80.02 283.54 79.79 285.28 80.89 286.60 C 81.37 289.90 80.15 293.58 81.86 296.60 C 81.97 298.53 82.02 300.46 82.15 302.39 C 83.24 304.31 82.82 306.63 83.77 308.60 C 83.92 309.53 84.07 310.47 84.23 311.41 C 84.82 312.68 85.02 314.07 85.31 315.44 C 85.81 317.12 86.18 318.83 86.63 320.53 C 87.00 321.54 87.38 322.55 87.79 323.55 C 87.89 324.03 88.09 325.00 88.19 325.48 C 88.73 326.77 89.21 328.09 89.76 329.39 C 90.32 330.75 90.87 332.11 91.33 333.51 C 91.79 334.81 92.22 336.12 92.69 337.42 C 93.21 338.48 93.75 339.53 94.27 340.60 C 94.75 341.53 95.24 342.46 95.74 343.40 C 96.25 344.46 96.77 345.51 97.28 346.58 C 97.95 347.92 98.61 349.26 99.25 350.63 C 100.39 352.56 101.62 354.44 102.73 356.39 C 103.55 357.80 104.45 359.17 105.24 360.60 C 106.40 362.74 108.00 364.57 109.34 366.59 C 110.11 367.53 110.89 368.46 111.66 369.40 C 112.82 371.18 114.21 372.81 115.31 374.64 C 117.06 376.58 118.94 378.41 120.68 380.36 C 123.43 384.79 127.72 388.01 131.36 391.68 C 134.15 393.10 136.01 395.70 138.36 397.69 C 139.83 398.50 141.13 399.57 142.44 400.62 C 143.84 401.54 145.14 402.58 146.42 403.65 C 147.45 404.31 148.46 404.98 149.47 405.69 C 150.85 406.54 152.20 407.46 153.60 408.29 C 155.30 409.22 156.93 410.28 158.60 411.27 C 160.56 412.37 162.44 413.61 164.37 414.77 C 165.44 415.26 166.51 415.78 167.58 416.30 C 168.86 416.78 170.15 417.20 171.43 417.69 C 172.47 418.22 173.52 418.76 174.56 419.31 C 176.84 420.43 179.24 421.29 181.59 422.27 C 182.87 422.76 184.18 423.20 185.49 423.67 C 186.88 424.12 188.23 424.68 189.57 425.29 C 191.23 425.82 192.93 426.21 194.58 426.78 C 195.52 426.92 196.47 427.07 197.43 427.22 C 199.13 427.78 200.87 428.21 202.58 428.78 C 203.52 428.92 204.46 429.06 205.41 429.22 C 207.61 430.54 210.42 429.42 212.60 430.82 C 214.60 431.09 216.85 430.61 218.60 431.88 C 222.86 432.13 227.14 431.86 231.40 432.11 C 234.76 433.59 239.23 433.56 242.61 432.12 C 247.22 431.43 252.24 433.04 256.60 431.17 C 258.60 430.93 260.80 431.32 262.60 430.18 C 264.60 429.93 266.78 430.30 268.58 429.21 C 269.53 429.06 270.47 428.92 271.43 428.79 C 273.12 428.21 274.87 427.78 276.58 427.22 C 277.52 427.07 278.47 426.92 279.42 426.78 C 281.07 426.20 282.78 425.81 284.45 425.29 C 286.08 424.52 287.76 423.89 289.47 423.32 C 290.88 422.86 292.25 422.32 293.61 421.76 C 295.27 421.07 296.95 420.45 298.61 419.79 C 299.10 419.51 300.07 418.94 300.55 418.65 C 302.85 417.57 305.23 416.70 307.60 415.79 C 308.53 415.28 309.47 414.78 310.42 414.30 C 311.82 413.45 313.18 412.54 314.60 411.72 C 316.56 410.61 318.43 409.37 320.40 408.29 C 321.80 407.46 323.15 406.54 324.53 405.68 C 325.53 404.98 326.56 404.31 327.61 403.68 C 328.54 402.90 329.46 402.11 330.40 401.34 C 332.19 400.18 333.81 398.78 335.65 397.69 C 337.98 395.69 339.85 393.10 342.64 391.68 C 346.13 388.48 349.48 385.13 352.68 381.64 C 354.36 378.44 357.43 376.35 359.74 373.65 C 360.54 372.20 361.44 370.81 362.28 369.38 C 363.07 368.45 363.88 367.54 364.67 366.61 C 365.80 364.82 367.17 363.19 368.32 361.42 C 369.37 359.43 370.61 357.55 371.72 355.60 C 373.42 352.98 374.99 350.27 376.29 347.42 C 376.95 346.08 377.61 344.74 378.27 343.41 C 378.76 342.47 379.25 341.53 379.74 340.60 C 380.74 338.62 381.71 336.62 382.32 334.48 C 382.89 332.76 383.51 331.08 384.27 329.44 C 384.64 328.46 384.98 327.48 385.31 326.49 C 385.77 325.13 386.25 323.79 386.79 322.47 C 386.91 322.00 387.14 321.05 387.26 320.58 C 387.76 319.28 388.02 317.92 388.34 316.58 C 388.75 315.26 389.02 313.90 389.30 312.55 C 389.79 310.84 390.19 309.10 390.77 307.42 C 391.00 305.72 390.86 303.89 391.85 302.39 C 392.14 300.06 391.48 297.45 392.89 295.38 C 393.38 292.09 392.12 288.39 393.88 285.40 C 394.07 278.14 394.08 270.87 393.88 263.61 C 391.81 260.56 394.16 256.48 392.17 253.40 C 391.94 251.39 392.30 249.21 391.18 247.40 C 391.05 246.13 390.94 244.86 390.81 243.60 C 389.89 241.65 390.02 239.44 389.35 237.42 C 389.02 236.07 388.74 234.72 388.26 233.42 C 388.15 232.95 387.92 232.00 387.80 231.52 C 387.25 230.18 386.73 228.82 386.20 227.47 C 386.09 226.99 385.89 226.04 385.78 225.56 C 385.39 224.54 385.02 223.52 384.68 222.49 C 384.21 221.19 383.77 219.87 383.27 218.58 C 382.37 216.55 381.62 214.46 380.78 212.41 C 380.07 211.09 379.38 209.76 378.70 208.43 C 378.45 207.93 377.96 206.92 377.72 206.42 C 376.69 204.42 375.69 202.42 374.76 200.38 C 373.78 198.69 372.71 197.07 371.72 195.40 C 370.78 193.70 369.71 192.06 368.72 190.39 C 368.36 189.95 367.64 189.05 367.28 188.61 C 366.45 187.19 365.55 185.81 364.69 184.42 C 363.58 183.15 362.50 181.85 361.67 180.39 C 360.56 179.12 359.43 177.88 358.33 176.62 C 356.87 173.86 354.36 171.93 352.23 169.73 C 347.34 164.95 342.67 159.94 337.64 155.32 C 335.73 154.31 334.19 152.78 332.62 151.34 C 328.91 149.16 326.30 145.61 323.27 142.64 C 322.30 140.94 321.22 139.31 320.25 137.62 C 319.44 135.86 318.57 134.13 317.61 132.46 C 317.06 130.89 316.97 129.22 316.76 127.59 C 315.48 125.13 316.15 122.25 315.89 119.60 C 314.61 118.12 314.65 115.89 315.86 114.40 C 315.99 112.08 315.83 109.70 316.56 107.46 C 317.11 106.11 317.69 104.77 318.28 103.44 C 318.62 102.46 318.95 101.48 319.26 100.49 C 319.97 99.50 320.69 98.50 321.37 97.49 C 322.03 96.45 322.68 95.41 323.29 94.35 C 325.10 92.46 327.01 90.64 328.43 88.43 C 329.81 87.48 331.12 86.42 332.42 85.36 C 333.46 84.68 334.48 83.97 335.49 83.25 C 336.49 82.97 337.48 82.68 338.48 82.37 C 339.50 81.78 340.51 81.18 341.53 80.58 C 343.53 80.00 345.74 80.15 347.61 79.13 C 353.23 79.20 359.03 78.32 364.54 79.59 C 365.54 79.98 366.54 80.38 367.55 80.78 C 368.02 80.90 368.97 81.12 369.44 81.23 C 370.45 81.60 371.47 81.96 372.50 82.29 C 373.51 82.98 374.54 83.68 375.60 84.33 C 376.04 84.67 376.94 85.37 377.39 85.72 C 378.81 86.55 380.20 87.45 381.63 88.27 C 382.86 89.42 384.11 90.56 385.38 91.68 C 387.19 92.81 388.81 94.21 390.64 95.31 C 393.32 97.65 395.67 100.34 398.36 102.68 C 401.14 104.09 403.04 106.64 405.25 108.76 C 407.37 110.96 409.90 112.86 411.32 115.64 C 413.83 118.78 417.36 121.05 419.33 124.62 C 420.43 125.88 421.56 127.12 422.67 128.38 C 423.70 130.28 425.22 131.84 426.72 133.37 C 427.55 134.79 428.44 136.19 429.28 137.62 C 430.08 138.54 430.90 139.46 431.72 140.38 C 432.54 141.79 433.45 143.15 434.30 144.54 C 434.99 145.52 435.69 146.51 436.36 147.51 C 437.20 148.78 438.00 150.07 438.74 151.40 C 439.55 152.82 440.45 154.18 441.27 155.60 C 442.37 157.57 443.62 159.44 444.78 161.37 C 445.26 162.44 445.76 163.51 446.26 164.58 C 446.94 165.91 447.61 167.25 448.28 168.59 C 448.76 169.53 449.24 170.47 449.72 171.41 C 450.37 172.75 451.04 174.09 451.72 175.42 C 452.23 176.48 452.77 177.52 453.30 178.58 C 453.92 180.26 454.53 181.95 455.20 183.61 C 455.49 184.10 456.06 185.06 456.35 185.55 C 456.80 186.85 457.20 188.18 457.66 189.49 C 458.12 190.88 458.67 192.24 459.23 193.61 C 459.76 194.91 460.28 196.22 460.81 197.52 C 460.91 198.01 461.09 198.99 461.19 199.48 C 461.73 200.82 462.25 202.18 462.81 203.53 C 462.91 204.01 463.11 204.97 463.20 205.45 C 463.61 206.45 463.99 207.45 464.37 208.47 C 464.82 210.18 465.16 211.92 465.78 213.58 C 465.92 214.52 466.07 215.47 466.22 216.43 C 466.78 218.13 467.22 219.87 467.78 221.58 C 467.92 222.52 468.07 223.46 468.23 224.40 C 469.04 225.95 469.00 227.72 469.23 229.41 C 470.27 231.24 469.95 233.39 470.18 235.40 C 471.48 237.49 470.86 240.07 471.14 242.40 C 473.07 245.13 470.91 248.88 472.88 251.60 C 473.66 256.21 471.75 261.41 474.00 265.62 L 474.00 287.16 C 471.92 291.23 473.53 296.02 472.88 300.40 C 470.90 303.11 473.07 306.85 471.15 309.60 C 471.03 311.19 470.96 312.79 470.84 314.40 C 469.38 316.56 470.60 319.41 469.18 321.59 C 469.04 322.86 468.93 324.13 468.81 325.41 C 468.19 327.10 467.78 328.86 467.22 330.58 C 467.06 331.52 466.92 332.47 466.78 333.43 C 466.20 335.11 465.78 336.85 465.26 338.56 C 465.13 339.03 464.86 339.97 464.73 340.43 C 464.18 342.10 463.81 343.82 463.34 345.52 C 463.01 346.52 462.68 347.52 462.34 348.52 C 461.98 349.53 461.60 350.54 461.22 351.55 C 461.12 352.04 460.91 353.00 460.81 353.48 C 460.12 355.19 459.46 356.91 458.74 358.60 C 458.09 360.27 457.45 361.94 456.74 363.59 C 456.23 364.86 455.79 366.14 455.31 367.42 C 454.44 369.14 453.55 370.85 452.68 372.58 C 452.20 373.85 451.78 375.14 451.32 376.42 C 450.44 378.13 449.56 379.85 448.70 381.57 C 448.04 382.92 447.39 384.27 446.76 385.63 C 445.34 387.91 443.84 390.15 442.73 392.61 C 441.62 394.57 440.37 396.44 439.27 398.40 C 438.44 399.81 437.54 401.18 436.74 402.61 C 435.79 404.29 434.72 405.90 433.68 407.53 C 432.98 408.53 432.32 409.56 431.69 410.62 C 430.88 411.54 430.08 412.46 429.28 413.38 C 428.45 414.81 427.54 416.19 426.72 417.62 C 425.91 418.53 425.11 419.45 424.34 420.40 C 423.07 422.69 420.90 424.31 419.68 426.64 C 417.94 428.58 415.88 430.28 414.68 432.64 C 409.88 437.84 404.71 442.68 399.76 447.74 C 397.74 449.72 395.93 452.03 393.35 453.31 C 391.03 455.31 389.14 457.87 386.38 459.33 C 385.11 460.43 383.88 461.56 382.62 462.67 C 381.15 463.50 379.84 464.58 378.58 465.69 C 377.18 466.55 375.80 467.45 374.38 468.28 C 373.45 469.08 372.53 469.90 371.62 470.72 C 369.94 471.71 368.31 472.77 366.60 473.69 C 365.55 474.31 364.53 474.97 363.53 475.67 C 361.57 477.02 359.56 478.31 357.38 479.27 C 355.42 480.37 353.55 481.61 351.63 482.77 C 351.11 483.01 350.09 483.47 349.57 483.71 C 347.57 484.70 345.57 485.70 343.58 486.72 C 341.57 487.70 339.57 488.70 337.58 489.71 C 337.08 489.96 336.08 490.47 335.58 490.72 C 333.85 491.57 332.14 492.44 330.42 493.30 C 328.74 493.93 327.05 494.54 325.40 495.24 C 323.73 495.90 322.06 496.55 320.41 497.25 C 319.09 497.76 317.78 498.27 316.48 498.81 C 315.99 498.91 315.02 499.10 314.53 499.20 C 313.20 499.73 311.85 500.21 310.50 500.68 C 309.47 501.02 308.45 501.38 307.44 501.77 C 306.97 501.89 306.04 502.14 305.57 502.26 C 303.87 502.79 302.13 503.19 300.44 503.74 C 299.97 503.87 299.03 504.13 298.56 504.26 C 296.87 504.79 295.14 505.19 293.45 505.69 C 292.08 505.97 290.69 506.22 289.41 506.77 C 288.46 506.91 287.53 507.07 286.59 507.23 C 284.37 508.50 281.60 507.46 279.40 508.81 C 278.12 508.93 276.86 509.04 275.59 509.18 C 272.83 511.04 269.10 508.91 266.40 510.89 C 263.42 511.36 259.96 510.08 257.38 512.00 L 216.86 512.00 C 213.72 509.79 209.53 512.19 206.40 510.13 C 204.13 510.01 201.87 509.99 199.61 509.86 C 197.70 508.70 195.33 509.26 193.39 508.19 C 191.40 507.97 189.30 508.18 187.43 507.32 C 186.08 507.01 184.73 506.76 183.43 506.33 C 182.08 506.02 180.74 505.75 179.43 505.33 C 178.08 505.01 176.72 504.73 175.41 504.29 C 174.95 504.15 174.03 503.87 173.57 503.73 C 171.89 503.18 170.17 502.81 168.47 502.37 C 167.46 501.99 166.45 501.60 165.45 501.20 C 164.97 501.11 164.01 500.91 163.53 500.81 C 162.17 500.26 160.82 499.74 159.47 499.19 C 158.99 499.10 158.01 498.91 157.52 498.81 C 156.22 498.27 154.90 497.76 153.59 497.25 C 151.93 496.55 150.26 495.91 148.60 495.25 C 146.55 494.38 144.46 493.62 142.41 492.77 C 139.50 491.21 136.53 489.77 133.58 488.29 C 132.24 487.62 130.91 486.96 129.57 486.29 C 128.24 485.62 126.91 484.94 125.59 484.26 C 124.51 483.76 123.44 483.26 122.37 482.79 C 120.09 481.34 117.85 479.83 115.38 478.73 C 113.69 477.80 112.09 476.72 110.48 475.67 C 109.22 474.80 107.93 474.00 106.61 473.25 C 105.18 472.44 103.80 471.54 102.38 470.73 C 101.46 469.90 100.54 469.08 99.62 468.28 C 98.19 467.45 96.81 466.55 95.42 465.69 C 94.15 464.58 92.85 463.50 91.38 462.67 C 90.12 461.56 88.88 460.43 87.62 459.33 C 84.36 457.75 82.64 454.23 79.36 452.68 C 74.50 448.22 69.99 443.38 65.26 438.77 C 63.28 436.75 60.98 434.93 59.68 432.36 C 57.94 430.41 56.06 428.59 54.32 426.64 C 53.31 424.73 51.78 423.19 50.34 421.62 C 49.49 420.15 48.42 418.84 47.31 417.58 C 46.44 416.18 45.54 414.80 44.72 413.38 C 43.91 412.45 43.09 411.53 42.29 410.61 C 41.47 409.20 40.55 407.85 39.67 406.48 C 38.81 405.22 38.00 403.93 37.25 402.61 C 36.28 400.92 35.23 399.29 34.28 397.60 C 32.83 395.33 31.43 393.02 30.29 390.58 C 28.38 387.72 26.75 384.68 25.28 381.58 C 24.76 380.52 24.23 379.48 23.70 378.44 C 22.73 376.55 21.98 374.57 21.30 372.57 C 20.77 371.52 20.22 370.48 19.69 369.44 C 18.57 367.15 17.70 364.76 16.75 362.40 C 16.23 361.14 15.78 359.86 15.24 358.61 C 14.67 357.25 14.13 355.89 13.67 354.49 C 13.22 353.14 12.74 351.79 12.21 350.47 C 12.11 349.99 11.89 349.03 11.78 348.55 C 11.38 347.55 11.00 346.54 10.64 345.53 C 10.19 343.83 9.83 342.10 9.26 340.44 C 9.13 339.97 8.88 339.03 8.75 338.56 C 8.20 336.87 7.80 335.14 7.31 333.45 C 7.03 332.09 6.75 330.74 6.33 329.43 C 6.02 328.06 5.82 326.66 5.19 325.40 C 5.06 324.13 4.95 322.86 4.82 321.60 C 3.68 319.80 4.07 317.60 3.82 315.60 C 2.68 313.80 3.07 311.61 2.82 309.61 C 0.99 306.82 3.06 303.13 1.11 300.40 C 0.37 296.12 2.21 291.25 0.00 287.38 L 0.00 265.85 C 2.12 261.43 0.42 256.31 1.12 251.60 C 3.09 248.88 0.92 245.13 2.86 242.40 C 2.97 240.46 3.03 238.53 3.14 236.60 C 4.36 234.83 3.92 232.61 4.18 230.60 C 5.10 229.08 5.00 227.28 5.24 225.59 C 5.79 224.31 6.02 222.92 6.33 221.57 C 6.77 220.26 7.02 218.90 7.31 217.56 C 7.80 215.86 8.19 214.14 8.70 212.44 C 8.98 211.11 9.24 209.78 9.62 208.48 C 9.96 207.47 10.31 206.47 10.66 205.48 C 11.02 204.46 11.40 203.45 11.78 202.45 C 11.89 201.97 12.10 201.01 12.21 200.53 C 12.74 199.21 13.22 197.86 13.69 196.51 C 14.02 195.52 14.36 194.53 14.73 193.56 C 15.47 191.91 16.11 190.23 16.71 188.53 C 17.01 187.53 17.32 186.53 17.66 185.54 C 18.21 184.50 18.77 183.47 19.31 182.43 C 19.98 180.43 20.73 178.45 21.67 176.56 C 21.93 176.07 22.47 175.08 22.74 174.59 C 23.24 173.53 23.76 172.47 24.27 171.41 C 25.43 169.14 26.58 166.86 27.72 164.58 C 29.10 161.43 30.95 158.54 32.73 155.61 C 33.55 154.18 34.45 152.81 35.27 151.39 C 36.21 149.71 37.28 148.10 38.30 146.47 C 39.00 145.48 39.69 144.49 40.36 143.48 C 41.03 142.46 41.69 141.43 42.31 140.38 C 43.11 139.45 43.92 138.54 44.72 137.62 C 45.55 136.19 46.45 134.80 47.27 133.37 C 48.42 132.13 49.57 130.89 50.67 129.62 C 51.92 127.31 54.09 125.69 55.32 123.37 C 57.81 120.21 61.40 117.96 63.32 114.36 C 66.52 110.87 69.87 107.51 73.36 104.32 C 76.96 102.39 79.21 98.82 82.37 96.32 C 84.27 95.31 85.80 93.78 87.38 92.34 C 89.27 91.29 90.82 89.79 92.37 88.31 C 93.42 87.68 94.45 87.03 95.48 86.35 C 96.49 85.70 97.49 85.03 98.49 84.36 C 99.54 83.65 100.54 82.88 101.54 82.11 C 102.02 82.04 102.99 81.90 103.47 81.83 C 104.81 81.27 106.17 80.74 107.52 80.19 C 108.00 80.08 108.95 79.86 109.42 79.75 Z" />
</g>
</svg>
