<svg width="1024pt" height="998pt" viewBox="0 0 1024 998" version="1.1" xmlns="http://www.w3.org/2000/svg">
<path d=" M 149.25 0.00 L 199.23 0.00 C 206.90 1.45 214.37 3.78 222.04 5.26 C 228.45 6.51 234.33 9.43 240.38 11.76 C 249.07 15.39 257.96 18.82 265.72 24.25 C 269.29 26.73 273.01 28.99 276.71 31.26 C 282.00 34.47 285.54 39.78 290.68 43.21 C 298.17 48.34 304.11 55.33 309.45 62.59 C 318.50 73.95 327.48 85.71 332.58 99.46 C 336.51 108.78 341.08 117.95 343.14 127.94 C 344.28 133.90 345.92 139.78 346.52 145.83 C 347.16 152.61 349.11 159.21 349.26 166.04 C 349.45 172.70 348.92 179.36 348.71 186.02 C 348.61 192.10 346.68 197.94 346.25 203.98 C 345.33 213.15 342.59 221.97 339.48 230.59 C 336.52 241.85 331.38 252.36 325.11 262.12 C 318.11 274.33 310.15 286.17 299.85 295.85 C 292.16 304.26 282.78 310.79 273.75 317.65 C 266.47 323.65 257.46 326.79 249.26 331.26 C 241.06 335.64 232.26 338.80 223.28 341.13 C 212.36 343.94 201.38 347.46 189.97 347.12 C 179.99 346.76 169.99 346.76 160.01 347.11 C 151.89 347.37 143.82 345.95 136.01 343.81 C 124.60 340.80 112.89 338.22 102.39 332.62 C 84.38 324.80 68.18 313.33 53.38 300.53 C 46.46 294.70 42.11 286.54 35.68 280.24 C 31.38 275.96 28.72 270.43 25.70 265.25 C 22.48 259.53 18.23 254.35 16.09 248.07 C 13.44 240.49 9.98 233.22 7.57 225.55 C 4.00 214.20 3.47 202.16 0.00 190.79 L 0.00 156.73 C 1.01 152.54 2.12 148.37 2.56 144.08 C 3.20 136.64 6.38 129.77 7.54 122.43 C 8.85 113.87 13.77 106.57 16.97 98.68 C 22.21 85.12 30.62 73.04 39.98 62.01 C 44.90 55.35 50.36 48.99 57.05 44.04 C 60.30 41.68 63.36 39.07 66.19 36.21 C 71.27 30.98 78.06 28.05 84.11 24.16 C 88.88 21.22 93.50 17.96 98.75 15.90 C 108.59 11.86 118.23 7.03 128.70 4.77 C 135.61 3.45 142.42 1.68 149.25 0.00 M 159.60 62.68 C 152.27 64.62 144.56 65.30 137.58 68.50 C 132.55 70.89 126.93 72.01 122.34 75.27 C 116.53 79.09 110.22 82.30 105.27 87.26 C 101.23 91.21 96.30 94.21 92.80 98.70 C 90.73 101.27 88.69 103.88 86.37 106.23 C 80.14 112.66 77.00 121.20 72.87 128.98 C 68.90 136.45 66.06 144.54 64.76 152.90 C 64.77 161.92 60.14 170.66 62.46 179.71 C 63.57 183.04 64.45 186.47 64.38 190.00 C 64.29 194.50 66.13 198.67 66.95 203.02 C 67.95 208.38 70.64 213.18 72.79 218.12 C 77.37 229.96 85.52 239.90 93.27 249.77 C 96.14 253.29 100.06 255.69 103.41 258.71 C 118.94 272.51 138.76 280.61 158.96 284.58 C 169.31 284.66 179.67 284.69 190.01 284.57 C 212.28 280.60 233.33 270.24 250.23 255.22 C 259.15 247.23 265.29 236.83 272.09 227.11 C 275.09 223.17 276.21 218.29 278.09 213.80 C 281.61 205.45 284.34 196.60 284.70 187.48 C 286.08 180.23 288.44 172.54 285.93 165.25 C 283.98 160.03 285.06 154.29 283.28 149.02 C 281.46 141.10 278.79 133.38 274.77 126.29 C 265.08 104.45 246.98 87.44 226.81 75.22 C 222.09 72.13 216.51 70.87 211.43 68.51 C 204.05 65.14 195.88 64.52 188.14 62.39 C 182.79 61.74 177.38 62.30 172.00 62.13 C 167.87 62.25 163.65 61.64 159.60 62.68 Z" />
<path d=" M 559.89 0.00 L 607.48 0.00 C 615.30 1.71 623.06 3.73 630.91 5.40 C 638.25 6.91 644.85 10.57 651.84 13.14 C 662.71 17.25 672.81 23.12 682.39 29.65 C 687.28 32.64 691.24 36.85 695.93 40.13 C 703.30 45.65 709.80 52.29 715.21 59.74 C 718.89 65.02 724.43 68.79 727.38 74.59 C 730.79 81.04 734.99 87.02 738.55 93.38 C 742.79 100.95 745.20 109.32 748.29 117.38 C 750.23 123.08 751.80 128.90 753.24 134.75 C 754.95 141.68 754.73 148.89 756.15 155.87 C 758.30 166.10 757.13 176.60 757.03 186.95 C 757.13 192.45 755.47 197.73 754.76 203.13 C 753.58 214.25 749.55 224.76 746.15 235.34 C 741.80 248.79 734.95 261.30 726.84 272.84 C 722.52 278.51 718.96 284.81 713.81 289.81 C 709.72 293.75 706.53 298.54 702.19 302.21 C 691.12 311.31 680.13 320.87 666.87 326.67 C 658.71 330.00 651.31 335.03 642.85 337.65 C 635.60 339.92 628.52 342.86 620.98 344.09 C 613.41 345.57 605.81 347.41 598.03 347.13 C 589.02 346.84 579.99 346.73 570.98 347.00 C 556.91 348.03 543.32 343.46 529.88 340.00 C 517.75 336.98 506.80 330.77 495.73 325.18 C 487.27 320.23 478.79 315.07 471.65 308.28 C 468.73 305.54 465.23 303.53 462.27 300.84 C 457.36 296.39 452.79 291.54 448.90 286.17 C 440.53 275.61 432.54 264.61 426.48 252.53 C 424.05 245.83 420.91 239.44 418.19 232.86 C 415.81 225.88 414.55 218.58 412.55 211.49 C 410.48 204.47 410.66 197.08 409.07 189.97 C 407.39 182.42 407.89 174.64 407.87 166.97 C 407.85 161.18 409.60 155.60 410.20 149.88 C 411.20 138.20 414.38 126.84 417.83 115.67 C 420.32 107.19 425.03 99.64 428.76 91.69 C 432.49 83.77 437.39 76.50 442.24 69.24 C 445.62 64.05 450.82 60.36 454.10 55.09 C 458.24 48.57 465.27 44.99 470.70 39.76 C 481.31 30.26 493.48 22.75 506.03 16.11 C 514.89 12.35 523.77 8.48 533.19 6.28 C 541.82 3.07 551.09 2.58 559.89 0.00 M 568.18 63.09 C 564.20 64.32 559.98 64.29 555.98 65.40 C 548.08 66.86 540.87 70.57 533.42 73.38 C 526.63 77.91 519.46 82.01 513.24 87.31 C 504.32 96.72 493.91 104.96 487.36 116.34 C 481.59 127.01 475.97 137.95 473.49 149.93 C 471.74 154.84 473.47 160.19 471.74 165.09 C 470.98 167.71 469.86 170.31 470.10 173.10 C 470.05 178.20 472.53 182.88 472.71 187.95 C 472.89 190.54 472.44 193.21 473.21 195.74 C 474.91 201.31 475.84 207.13 478.31 212.44 C 479.89 216.38 482.56 219.77 484.08 223.74 C 486.91 231.32 492.37 237.44 497.09 243.87 C 500.21 247.74 502.97 252.01 506.97 255.07 C 512.82 259.56 518.35 264.49 524.54 268.51 C 534.33 274.53 544.99 279.02 556.09 281.97 C 560.35 282.96 564.51 284.67 568.95 284.64 C 577.97 284.64 587.00 284.60 596.03 284.66 C 600.80 284.75 605.22 282.74 609.80 281.72 C 616.22 279.70 622.77 277.91 628.75 274.78 C 649.06 265.13 667.68 250.26 678.21 230.06 C 681.12 225.46 684.23 220.96 686.09 215.81 C 689.61 206.17 692.10 196.15 693.58 186.01 C 695.98 180.21 694.48 173.92 694.95 167.85 C 691.92 162.33 693.37 155.84 691.60 149.99 C 690.58 144.84 689.43 139.66 687.07 134.93 C 684.82 130.38 684.15 125.12 681.13 120.94 C 675.73 113.06 670.25 105.21 664.15 97.84 C 662.75 96.18 661.09 94.77 659.39 93.44 C 654.52 89.70 650.72 84.65 645.30 81.61 C 639.26 78.42 633.89 74.05 627.50 71.51 C 619.09 67.04 609.60 65.49 600.46 63.24 C 595.14 61.38 589.44 62.32 583.94 62.14 C 578.69 62.35 573.25 61.38 568.18 63.09 Z" />
<path d=" M 934.40 378.36 C 944.62 372.67 956.75 372.91 968.09 373.31 C 975.20 373.85 982.70 374.39 988.96 378.15 C 995.76 382.03 1002.32 386.52 1007.72 392.23 C 1012.59 397.99 1016.81 404.39 1019.62 411.42 C 1021.27 415.46 1023.19 419.56 1023.14 424.03 C 1023.11 597.35 1023.16 770.68 1023.11 944.00 C 1022.14 953.94 1018.74 963.80 1013.04 972.05 C 1007.27 981.19 998.47 988.06 988.86 992.81 C 983.79 994.87 978.53 996.45 973.29 998.00 L 947.75 998.00 C 938.51 995.78 930.14 991.01 922.64 985.30 C 914.02 978.26 905.40 971.23 896.76 964.23 C 890.47 958.45 883.68 953.24 876.89 948.07 C 870.60 943.44 865.38 937.55 858.89 933.18 C 843.35 920.29 827.79 907.44 811.89 895.01 C 802.52 886.66 792.60 878.97 782.74 871.23 C 776.21 864.98 768.65 859.99 761.89 854.02 C 761.85 870.01 761.85 886.00 761.92 901.99 C 761.93 911.16 762.34 920.84 758.21 929.31 C 755.48 934.99 754.50 941.49 750.67 946.64 C 747.90 950.30 745.75 954.37 743.07 958.10 C 737.89 964.61 731.43 969.98 724.55 974.62 C 720.31 977.90 715.76 980.79 710.70 982.63 C 698.02 988.50 683.99 991.68 669.99 991.15 C 482.00 991.11 294.02 991.14 106.03 991.13 C 96.34 991.10 86.60 991.34 76.95 990.23 C 64.81 988.04 52.86 984.16 42.29 977.68 C 34.75 973.94 29.84 966.83 23.71 961.31 C 17.66 955.86 13.00 949.07 9.12 941.96 C 4.89 933.08 2.35 923.51 0.00 914.00 L 0.00 457.90 C 2.37 446.55 6.19 435.55 11.18 425.10 C 12.43 422.77 14.04 420.66 15.63 418.56 C 19.96 412.97 23.54 406.61 29.39 402.40 C 34.51 398.85 39.16 394.60 44.77 391.78 C 55.06 386.22 66.13 381.05 78.00 380.58 C 279.02 380.16 480.03 380.48 681.05 380.36 C 691.12 380.13 700.68 383.76 709.92 387.32 C 715.41 389.38 720.13 392.91 725.13 395.89 C 730.07 398.82 733.75 403.30 737.83 407.24 C 748.92 417.14 754.85 431.29 759.50 445.10 C 761.90 452.48 762.02 460.32 761.94 468.00 C 761.76 484.14 761.95 500.28 761.83 516.41 C 780.16 501.94 798.10 486.96 816.18 472.18 C 824.48 465.81 832.12 458.61 840.69 452.59 C 845.54 449.24 849.37 444.68 854.13 441.20 C 863.07 434.53 871.34 427.03 880.02 420.04 C 886.71 414.36 893.87 409.26 900.50 403.50 C 911.80 395.13 921.75 384.81 934.40 378.36 M 945.98 448.96 C 920.08 470.03 894.36 491.33 868.38 512.31 C 840.89 534.85 813.04 556.95 785.80 579.80 C 777.90 586.22 770.33 593.07 762.20 599.19 C 761.62 656.72 761.79 714.27 762.10 771.80 C 814.23 814.36 866.66 856.57 918.53 899.46 C 932.65 911.13 947.11 922.42 960.94 934.43 C 960.77 887.30 960.92 840.16 960.87 793.02 C 960.92 674.21 960.77 555.39 960.95 436.57 C 956.31 441.11 950.97 444.83 945.98 448.96 M 83.27 443.25 C 77.94 445.91 72.53 449.07 69.17 454.15 C 64.88 458.70 62.24 464.74 62.11 471.01 C 62.15 611.35 62.13 751.68 62.12 892.01 C 61.63 901.29 63.56 911.70 70.67 918.27 C 73.88 921.41 77.25 924.59 81.40 926.44 C 85.20 927.45 89.02 928.66 92.99 928.66 C 285.33 929.10 477.67 928.74 670.01 928.90 C 683.81 928.83 695.86 917.97 699.60 905.09 C 699.87 898.38 699.58 891.65 699.68 884.94 C 699.61 748.64 699.60 612.35 699.69 476.05 C 699.63 472.42 699.94 468.76 699.43 465.16 C 696.82 453.97 687.22 444.87 676.03 442.57 C 482.34 442.70 288.65 442.59 94.96 442.62 C 91.08 442.83 87.01 442.01 83.27 443.25 Z" />
</svg>
